<mxfile host="app.diagrams.net" modified="2020-11-23T06:19:49.089Z" agent="5.0 (Macintosh; Intel Mac OS X 10_15_7) AppleWebKit/537.36 (KHTML, like Gecko) Chrome/86.0.4240.111 Safari/537.36" etag="CdXEyTd1A4ceBHvvNj86" version="13.10.0" type="github">
  <diagram id="kgpKYQtTHZ0yAKxKKP6v" name="Page-1">
    <mxGraphModel dx="1780" dy="1094" grid="1" gridSize="10" guides="1" tooltips="1" connect="1" arrows="1" fold="1" page="1" pageScale="1" pageWidth="850" pageHeight="1100" math="0" shadow="0">
      <root>
        <mxCell id="0" />
        <mxCell id="1" parent="0" />
        <mxCell id="3nuBFxr9cyL0pnOWT2aG-5" value="ChatListFragment" style="shape=umlLifeline;perimeter=lifelinePerimeter;container=1;collapsible=0;recursiveResize=0;rounded=0;shadow=0;strokeWidth=1;" parent="1" vertex="1">
          <mxGeometry x="300" y="80" width="100" height="300" as="geometry" />
        </mxCell>
        <mxCell id="3nuBFxr9cyL0pnOWT2aG-6" value="" style="points=[];perimeter=orthogonalPerimeter;rounded=0;shadow=0;strokeWidth=1;" parent="3nuBFxr9cyL0pnOWT2aG-5" vertex="1">
          <mxGeometry x="45" y="80" width="10" height="160" as="geometry" />
        </mxCell>
        <mxCell id="3nuBFxr9cyL0pnOWT2aG-7" value="" style="verticalAlign=bottom;endArrow=open;dashed=1;endSize=8;shadow=0;strokeWidth=1;" parent="1" edge="1">
          <mxGeometry relative="1" as="geometry">
            <mxPoint x="175" y="218" as="targetPoint" />
            <mxPoint x="349.5" y="218" as="sourcePoint" />
            <Array as="points">
              <mxPoint x="270" y="218" />
            </Array>
          </mxGeometry>
        </mxCell>
        <mxCell id="3nuBFxr9cyL0pnOWT2aG-8" value="注册未读消息监听" style="verticalAlign=bottom;endArrow=block;entryX=0;entryY=0;shadow=0;strokeWidth=1;" parent="1" target="3nuBFxr9cyL0pnOWT2aG-6" edge="1">
          <mxGeometry relative="1" as="geometry">
            <mxPoint x="175" y="160.0000000000001" as="sourcePoint" />
          </mxGeometry>
        </mxCell>
        <mxCell id="V4I_e2ETPVVuSBv9okTB-1" value="ConversationListViewModel" style="shape=umlLifeline;perimeter=lifelinePerimeter;container=1;collapsible=0;recursiveResize=0;rounded=0;shadow=0;strokeWidth=1;" parent="1" vertex="1">
          <mxGeometry x="500" y="80" width="100" height="300" as="geometry" />
        </mxCell>
        <mxCell id="V4I_e2ETPVVuSBv9okTB-2" value="" style="points=[];perimeter=orthogonalPerimeter;rounded=0;shadow=0;strokeWidth=1;" parent="V4I_e2ETPVVuSBv9okTB-1" vertex="1">
          <mxGeometry x="45" y="80" width="10" height="160" as="geometry" />
        </mxCell>
        <mxCell id="V4I_e2ETPVVuSBv9okTB-4" value="" style="endArrow=block;endFill=1;html=1;edgeStyle=orthogonalEdgeStyle;align=left;verticalAlign=top;" parent="1" edge="1">
          <mxGeometry x="-1" relative="1" as="geometry">
            <mxPoint x="370" y="180" as="sourcePoint" />
            <mxPoint x="530" y="180" as="targetPoint" />
          </mxGeometry>
        </mxCell>
        <mxCell id="V4I_e2ETPVVuSBv9okTB-5" value="注册会话列表获取 更新 移除监听" style="edgeLabel;resizable=0;html=1;align=left;verticalAlign=bottom;" parent="V4I_e2ETPVVuSBv9okTB-4" connectable="0" vertex="1">
          <mxGeometry x="-1" relative="1" as="geometry">
            <mxPoint y="-10" as="offset" />
          </mxGeometry>
        </mxCell>
        <mxCell id="V4I_e2ETPVVuSBv9okTB-6" value="ConversationListModel" style="shape=umlLifeline;perimeter=lifelinePerimeter;container=1;collapsible=0;recursiveResize=0;rounded=0;shadow=0;strokeWidth=1;" parent="1" vertex="1">
          <mxGeometry x="690" y="70" width="100" height="300" as="geometry" />
        </mxCell>
        <mxCell id="V4I_e2ETPVVuSBv9okTB-7" value="" style="points=[];perimeter=orthogonalPerimeter;rounded=0;shadow=0;strokeWidth=1;" parent="V4I_e2ETPVVuSBv9okTB-6" vertex="1">
          <mxGeometry x="45" y="80" width="10" height="160" as="geometry" />
        </mxCell>
        <mxCell id="V4I_e2ETPVVuSBv9okTB-14" value="" style="html=1;points=[];perimeter=orthogonalPerimeter;" parent="V4I_e2ETPVVuSBv9okTB-6" vertex="1">
          <mxGeometry x="45" y="130" width="10" height="40" as="geometry" />
        </mxCell>
        <mxCell id="V4I_e2ETPVVuSBv9okTB-15" value="sync,DB查询&lt;br&gt;&lt;span style=&quot;text-align: center&quot;&gt;conversationMap&lt;br&gt;未读消息&lt;br&gt;&lt;/span&gt;" style="edgeStyle=orthogonalEdgeStyle;html=1;align=left;spacingLeft=2;endArrow=block;rounded=0;entryX=1;entryY=0;" parent="V4I_e2ETPVVuSBv9okTB-6" target="V4I_e2ETPVVuSBv9okTB-14" edge="1">
          <mxGeometry relative="1" as="geometry">
            <mxPoint x="50" y="110" as="sourcePoint" />
            <Array as="points">
              <mxPoint x="75" y="110" />
            </Array>
          </mxGeometry>
        </mxCell>
        <mxCell id="V4I_e2ETPVVuSBv9okTB-8" value="" style="endArrow=block;endFill=1;html=1;edgeStyle=orthogonalEdgeStyle;align=left;verticalAlign=top;" parent="1" edge="1">
          <mxGeometry x="-1" relative="1" as="geometry">
            <mxPoint x="570" y="180" as="sourcePoint" />
            <mxPoint x="730" y="180" as="targetPoint" />
          </mxGeometry>
        </mxCell>
        <mxCell id="V4I_e2ETPVVuSBv9okTB-9" value="getAllConversation" style="edgeLabel;resizable=0;html=1;align=left;verticalAlign=bottom;" parent="V4I_e2ETPVVuSBv9okTB-8" connectable="0" vertex="1">
          <mxGeometry x="-1" relative="1" as="geometry" />
        </mxCell>
        <mxCell id="V4I_e2ETPVVuSBv9okTB-10" value="回掉监听，LiveData设置数据" style="verticalAlign=bottom;endArrow=open;dashed=1;endSize=8;exitX=0;exitY=0.95;shadow=0;strokeWidth=1;" parent="1" target="V4I_e2ETPVVuSBv9okTB-13" edge="1">
          <mxGeometry relative="1" as="geometry">
            <mxPoint x="570" y="219.49999999999977" as="targetPoint" />
            <mxPoint x="740" y="219.49999999999977" as="sourcePoint" />
          </mxGeometry>
        </mxCell>
        <mxCell id="V4I_e2ETPVVuSBv9okTB-11" value="showConversationList" style="verticalAlign=bottom;endArrow=open;dashed=1;endSize=8;exitX=0;exitY=0.95;shadow=0;strokeWidth=1;" parent="1" edge="1">
          <mxGeometry x="-0.0588" relative="1" as="geometry">
            <mxPoint x="360" y="219.49999999999977" as="targetPoint" />
            <mxPoint x="530" y="219.49999999999977" as="sourcePoint" />
            <mxPoint as="offset" />
          </mxGeometry>
        </mxCell>
        <mxCell id="V4I_e2ETPVVuSBv9okTB-12" value="getAllConversationLd" style="edgeLabel;resizable=0;html=1;align=left;verticalAlign=bottom;" parent="1" connectable="0" vertex="1">
          <mxGeometry x="380" y="200" as="geometry" />
        </mxCell>
        <mxCell id="V4I_e2ETPVVuSBv9okTB-13" value="" style="html=1;points=[];perimeter=orthogonalPerimeter;" parent="1" vertex="1">
          <mxGeometry x="565" y="199.49999999999977" width="10" height="40" as="geometry" />
        </mxCell>
        <mxCell id="V4I_e2ETPVVuSBv9okTB-17" value="&lt;span style=&quot;font-size: 11px ; background-color: rgb(255 , 255 , 255)&quot;&gt;获取处理好的会话列表，移除不让显示&lt;/span&gt;" style="text;html=1;align=center;verticalAlign=middle;resizable=0;points=[];autosize=1;" parent="1" vertex="1">
          <mxGeometry x="530" y="219.5" width="220" height="20" as="geometry" />
        </mxCell>
        <mxCell id="V4I_e2ETPVVuSBv9okTB-19" value="NetSaleDealerChatRoomActivity" style="shape=umlLifeline;perimeter=lifelinePerimeter;container=1;collapsible=0;recursiveResize=0;rounded=0;shadow=0;strokeWidth=1;" parent="1" vertex="1">
          <mxGeometry x="100" y="580" width="100" height="300" as="geometry" />
        </mxCell>
        <mxCell id="V4I_e2ETPVVuSBv9okTB-20" value="" style="points=[];perimeter=orthogonalPerimeter;rounded=0;shadow=0;strokeWidth=1;" parent="V4I_e2ETPVVuSBv9okTB-19" vertex="1">
          <mxGeometry x="45" y="68" width="10" height="190" as="geometry" />
        </mxCell>
        <mxCell id="V4I_e2ETPVVuSBv9okTB-23" value="AutoChatRoomActivity" style="shape=umlLifeline;perimeter=lifelinePerimeter;container=1;collapsible=0;recursiveResize=0;rounded=0;shadow=0;strokeWidth=1;" parent="1" vertex="1">
          <mxGeometry x="280" y="580" width="100" height="300" as="geometry" />
        </mxCell>
        <mxCell id="V4I_e2ETPVVuSBv9okTB-24" value="" style="points=[];perimeter=orthogonalPerimeter;rounded=0;shadow=0;strokeWidth=1;" parent="V4I_e2ETPVVuSBv9okTB-23" vertex="1">
          <mxGeometry x="45" y="78" width="10" height="160" as="geometry" />
        </mxCell>
        <mxCell id="V4I_e2ETPVVuSBv9okTB-26" value="功能区initFuncView" style="verticalAlign=bottom;endArrow=block;entryX=0;entryY=0;shadow=0;strokeWidth=1;" parent="1" source="V4I_e2ETPVVuSBv9okTB-20" target="V4I_e2ETPVVuSBv9okTB-24" edge="1">
          <mxGeometry relative="1" as="geometry">
            <mxPoint x="255" y="658" as="sourcePoint" />
          </mxGeometry>
        </mxCell>
        <mxCell id="V4I_e2ETPVVuSBv9okTB-29" value="ConversationViewModel&#xa;(IMessageObserver&#xa;IConversationObserver)" style="shape=umlLifeline;perimeter=lifelinePerimeter;container=1;collapsible=0;recursiveResize=0;rounded=0;shadow=0;strokeWidth=1;" parent="1" vertex="1">
          <mxGeometry x="480" y="580" width="100" height="300" as="geometry" />
        </mxCell>
        <mxCell id="V4I_e2ETPVVuSBv9okTB-30" value="" style="points=[];perimeter=orthogonalPerimeter;rounded=0;shadow=0;strokeWidth=1;" parent="V4I_e2ETPVVuSBv9okTB-29" vertex="1">
          <mxGeometry x="45" y="78" width="10" height="160" as="geometry" />
        </mxCell>
        <mxCell id="V4I_e2ETPVVuSBv9okTB-31" value="" style="endArrow=block;endFill=1;html=1;edgeStyle=orthogonalEdgeStyle;align=left;verticalAlign=top;" parent="1" edge="1">
          <mxGeometry x="-1" relative="1" as="geometry">
            <mxPoint x="350" y="678" as="sourcePoint" />
            <mxPoint x="510" y="678" as="targetPoint" />
          </mxGeometry>
        </mxCell>
        <mxCell id="V4I_e2ETPVVuSBv9okTB-32" value="mUserInfoViewModel&lt;br&gt;&lt;span style=&quot;font-size: 11px&quot;&gt;mConversationViewModel&lt;/span&gt;" style="edgeLabel;resizable=0;html=1;align=left;verticalAlign=bottom;" parent="V4I_e2ETPVVuSBv9okTB-31" connectable="0" vertex="1">
          <mxGeometry x="-1" relative="1" as="geometry">
            <mxPoint y="-10" as="offset" />
          </mxGeometry>
        </mxCell>
        <mxCell id="V4I_e2ETPVVuSBv9okTB-33" value="MessageModel" style="shape=umlLifeline;perimeter=lifelinePerimeter;container=1;collapsible=0;recursiveResize=0;rounded=0;shadow=0;strokeWidth=1;" parent="1" vertex="1">
          <mxGeometry x="670" y="570" width="100" height="300" as="geometry" />
        </mxCell>
        <mxCell id="V4I_e2ETPVVuSBv9okTB-34" value="" style="points=[];perimeter=orthogonalPerimeter;rounded=0;shadow=0;strokeWidth=1;" parent="V4I_e2ETPVVuSBv9okTB-33" vertex="1">
          <mxGeometry x="45" y="78" width="10" height="160" as="geometry" />
        </mxCell>
        <mxCell id="V4I_e2ETPVVuSBv9okTB-35" value="" style="html=1;points=[];perimeter=orthogonalPerimeter;" parent="V4I_e2ETPVVuSBv9okTB-33" vertex="1">
          <mxGeometry x="45" y="128" width="10" height="40" as="geometry" />
        </mxCell>
        <mxCell id="V4I_e2ETPVVuSBv9okTB-36" value="DB查询 同时&lt;br&gt;网络拉取syncMsgByUser&lt;br&gt;&lt;span style=&quot;text-align: center&quot;&gt;&lt;br&gt;&lt;/span&gt;" style="edgeStyle=orthogonalEdgeStyle;html=1;align=left;spacingLeft=2;endArrow=block;rounded=0;entryX=1;entryY=0;" parent="V4I_e2ETPVVuSBv9okTB-33" target="V4I_e2ETPVVuSBv9okTB-35" edge="1">
          <mxGeometry relative="1" as="geometry">
            <mxPoint x="50" y="108" as="sourcePoint" />
            <Array as="points">
              <mxPoint x="75" y="108" />
            </Array>
          </mxGeometry>
        </mxCell>
        <mxCell id="V4I_e2ETPVVuSBv9okTB-37" value="" style="endArrow=block;endFill=1;html=1;edgeStyle=orthogonalEdgeStyle;align=left;verticalAlign=top;" parent="1" edge="1">
          <mxGeometry x="-1" relative="1" as="geometry">
            <mxPoint x="550" y="678" as="sourcePoint" />
            <mxPoint x="710" y="678" as="targetPoint" />
          </mxGeometry>
        </mxCell>
        <mxCell id="V4I_e2ETPVVuSBv9okTB-38" value="initMessageList&lt;br&gt;" style="edgeLabel;resizable=0;html=1;align=left;verticalAlign=bottom;" parent="V4I_e2ETPVVuSBv9okTB-37" connectable="0" vertex="1">
          <mxGeometry x="-1" relative="1" as="geometry" />
        </mxCell>
        <mxCell id="V4I_e2ETPVVuSBv9okTB-39" value="回掉监听，LiveData设置数据" style="verticalAlign=bottom;endArrow=open;dashed=1;endSize=8;exitX=0;exitY=0.95;shadow=0;strokeWidth=1;" parent="1" edge="1">
          <mxGeometry relative="1" as="geometry">
            <mxPoint x="555" y="717.4999999999998" as="targetPoint" />
            <mxPoint x="720" y="717.4999999999998" as="sourcePoint" />
          </mxGeometry>
        </mxCell>
        <mxCell id="V4I_e2ETPVVuSBv9okTB-40" value="显示消息列表" style="verticalAlign=bottom;endArrow=open;dashed=1;endSize=8;exitX=0;exitY=0.95;shadow=0;strokeWidth=1;" parent="1" edge="1">
          <mxGeometry x="-0.0588" relative="1" as="geometry">
            <mxPoint x="340" y="717.4999999999998" as="targetPoint" />
            <mxPoint x="510" y="717.4999999999998" as="sourcePoint" />
            <mxPoint as="offset" />
          </mxGeometry>
        </mxCell>
        <mxCell id="V4I_e2ETPVVuSBv9okTB-41" value="initMessageList" style="edgeLabel;resizable=0;html=1;align=left;verticalAlign=bottom;" parent="1" connectable="0" vertex="1">
          <mxGeometry x="360" y="698" as="geometry" />
        </mxCell>
        <mxCell id="V4I_e2ETPVVuSBv9okTB-48" value="SingleChatListFragment" style="shape=umlLifeline;perimeter=lifelinePerimeter;container=1;collapsible=0;recursiveResize=0;rounded=0;shadow=0;strokeWidth=1;" parent="1" vertex="1">
          <mxGeometry x="120" y="79.5" width="100" height="300" as="geometry" />
        </mxCell>
        <mxCell id="V4I_e2ETPVVuSBv9okTB-49" value="" style="points=[];perimeter=orthogonalPerimeter;rounded=0;shadow=0;strokeWidth=1;" parent="V4I_e2ETPVVuSBv9okTB-48" vertex="1">
          <mxGeometry x="45" y="80" width="10" height="160" as="geometry" />
        </mxCell>
        <mxCell id="V4I_e2ETPVVuSBv9okTB-53" value="过滤得到单聊列表&lt;br&gt;setValue未读消息count" style="text;html=1;strokeColor=none;fillColor=none;align=center;verticalAlign=middle;whiteSpace=wrap;rounded=0;" parent="1" vertex="1">
          <mxGeometry x="200" y="190" width="100" height="20" as="geometry" />
        </mxCell>
        <mxCell id="V4I_e2ETPVVuSBv9okTB-54" value="ChatManager" style="shape=umlLifeline;perimeter=lifelinePerimeter;whiteSpace=wrap;html=1;container=1;collapsible=0;recursiveResize=0;outlineConnect=0;" parent="1" vertex="1">
          <mxGeometry x="990" y="100" width="100" height="300" as="geometry" />
        </mxCell>
        <mxCell id="V4I_e2ETPVVuSBv9okTB-97" value="IMClient" style="shape=umlLifeline;perimeter=lifelinePerimeter;whiteSpace=wrap;html=1;container=1;collapsible=0;recursiveResize=0;outlineConnect=0;" parent="1" vertex="1">
          <mxGeometry x="1170" y="100" width="100" height="300" as="geometry" />
        </mxCell>
        <mxCell id="V4I_e2ETPVVuSBv9okTB-100" value="" style="html=1;points=[];perimeter=orthogonalPerimeter;" parent="1" vertex="1">
          <mxGeometry x="1210" y="179.5" width="10" height="80" as="geometry" />
        </mxCell>
        <mxCell id="V4I_e2ETPVVuSBv9okTB-101" value="init&lt;br&gt;setBridege&lt;br&gt;setImMonitor" style="html=1;verticalAlign=bottom;endArrow=block;entryX=0;entryY=0;" parent="1" source="V4I_e2ETPVVuSBv9okTB-54" target="V4I_e2ETPVVuSBv9okTB-100" edge="1">
          <mxGeometry relative="1" as="geometry">
            <mxPoint x="1140" y="179.5" as="sourcePoint" />
          </mxGeometry>
        </mxCell>
        <mxCell id="V4I_e2ETPVVuSBv9okTB-103" value="initWholeCallback" style="html=1;verticalAlign=bottom;endArrow=block;entryX=0;entryY=0;" parent="1" edge="1">
          <mxGeometry relative="1" as="geometry">
            <mxPoint x="1039.5" y="210.0000000000001" as="sourcePoint" />
            <mxPoint x="1210" y="210.0000000000001" as="targetPoint" />
          </mxGeometry>
        </mxCell>
        <mxCell id="V4I_e2ETPVVuSBv9okTB-104" value="server" style="shape=umlLifeline;perimeter=lifelinePerimeter;whiteSpace=wrap;html=1;container=1;collapsible=0;recursiveResize=0;outlineConnect=0;" parent="1" vertex="1">
          <mxGeometry x="1300" y="100" width="100" height="300" as="geometry" />
        </mxCell>
        <mxCell id="V4I_e2ETPVVuSBv9okTB-105" value="用户登录，创建新会话，token失效fetchToken" style="html=1;verticalAlign=bottom;endArrow=block;" parent="1" target="V4I_e2ETPVVuSBv9okTB-104" edge="1">
          <mxGeometry relative="1" as="geometry">
            <mxPoint x="1039.5" y="290.0000000000001" as="sourcePoint" />
            <mxPoint x="1210" y="290.0000000000001" as="targetPoint" />
          </mxGeometry>
        </mxCell>
        <mxCell id="V4I_e2ETPVVuSBv9okTB-106" value="token,Sp存储" style="html=1;verticalAlign=bottom;endArrow=open;dashed=1;endSize=8;" parent="1" source="V4I_e2ETPVVuSBv9okTB-104" edge="1">
          <mxGeometry relative="1" as="geometry">
            <mxPoint x="1130" y="350" as="sourcePoint" />
            <mxPoint x="1050" y="350" as="targetPoint" />
          </mxGeometry>
        </mxCell>
      </root>
    </mxGraphModel>
  </diagram>
</mxfile>
